<?xml version="1.0" standalone="no"?>
<!DOCTYPE svg PUBLIC "-//W3C//DTD SVG 20010904//EN"
 "http://www.w3.org/TR/2001/REC-SVG-20010904/DTD/svg10.dtd">
<svg version="1.0" xmlns="http://www.w3.org/2000/svg"
 width="500.000000pt" height="500.000000pt" viewBox="0 0 500.000000 500.000000"
 preserveAspectRatio="xMidYMid meet">

<g transform="translate(0.000000,500.000000) scale(0.100000,-0.100000)"
fill="#000000" stroke="none">
<path d="M1868 2926 c-57 -21 -85 -42 -116 -88 l-27 -41 -3 -277 -3 -277 138
-5 c197 -8 263 12 356 108 21 21 50 64 65 94 22 47 26 68 27 145 0 77 -4 98
-27 147 -33 71 -106 146 -173 177 -62 30 -181 38 -237 17z m38 -92 c135 -101
256 -312 256 -446 0 -98 -60 -113 -157 -40 l-50 38 -6 139 c-6 165 -15 189
-89 234 -58 35 -80 72 -60 96 20 24 54 18 106 -21z"/>
<path d="M2761 2928 c-76 -21 -111 -66 -111 -141 0 -69 43 -125 134 -173 l40
-22 -40 -6 c-136 -23 -206 -149 -139 -248 68 -100 319 -138 455 -68 50 26 101
70 94 81 -3 5 -18 -1 -34 -15 -70 -58 -181 -72 -239 -29 -64 48 -115 164 -95
220 13 40 66 63 141 63 34 0 65 5 68 10 4 6 -19 10 -63 10 -95 0 -170 16 -214
45 -38 26 -78 88 -78 124 0 32 21 70 42 77 37 11 63 -5 121 -76 86 -105 159
-125 243 -68 45 31 67 80 68 153 1 67 -13 87 -26 38 -13 -51 -42 -52 -146 -4
-94 43 -148 50 -221 29z"/>
<path d="M3290 2918 c-64 -33 -85 -67 -85 -138 0 -51 4 -63 29 -89 17 -17 33
-31 36 -31 4 0 6 19 6 43 -1 40 1 42 29 45 17 2 47 -4 68 -13 l37 -15 0 -240
0 -240 110 0 110 0 0 168 c0 119 -4 173 -13 185 -6 10 -37 24 -66 32 -50 13
-112 57 -100 70 3 2 21 0 40 -5 46 -13 138 -13 180 1 81 28 144 102 158 188 6
40 5 51 -5 51 -8 0 -14 -7 -14 -15 0 -8 -13 -29 -29 -47 -40 -45 -84 -44 -176
4 -138 71 -237 85 -315 46z"/>
<path d="M2350 2585 l0 -345 115 0 115 0 0 345 0 345 -115 0 -115 0 0 -345z"/>
<path d="M1716 2014 c-10 -79 -8 -94 14 -94 13 0 20 7 20 20 0 11 4 20 9 20 5
0 11 -9 14 -20 3 -12 14 -20 27 -20 18 0 21 4 16 23 -3 12 0 37 7 55 10 30 9
35 -8 48 -10 8 -35 14 -56 14 -36 0 -36 -1 -43 -46z m64 -4 c0 -11 -4 -20 -10
-20 -5 0 -10 9 -10 20 0 11 5 20 10 20 6 0 10 -9 10 -20z"/>
<path d="M1850 2028 c0 -18 -3 -50 -6 -70 -6 -33 -4 -38 13 -38 17 0 22 10 30
70 9 69 9 70 -14 70 -19 0 -23 -5 -23 -32z"/>
<path d="M1945 2048 c-29 -16 -35 -28 -35 -69 0 -46 18 -61 67 -57 33 3 38 7
41 31 3 22 -1 27 -17 27 -13 0 -21 -6 -21 -16 0 -24 -25 -11 -28 15 -5 30 12
46 46 46 17 0 28 6 30 18 3 13 -3 17 -30 17 -18 0 -42 -6 -53 -12z"/>
<path d="M2046 2014 c-10 -79 -8 -94 14 -94 15 0 20 7 20 25 0 18 5 25 20 25
15 0 20 -7 20 -25 0 -18 5 -25 19 -25 14 0 20 10 25 46 10 79 8 94 -14 94 -15
0 -20 -7 -20 -25 0 -18 -5 -25 -20 -25 -15 0 -20 7 -20 25 0 18 -5 25 -19 25
-14 0 -20 -10 -25 -46z"/>
<path d="M2197 2053 c-14 -14 -7 -35 9 -29 15 6 16 0 10 -49 -6 -50 -4 -55 13
-55 15 0 20 10 26 49 5 37 11 50 26 54 10 3 19 12 19 21 0 12 -11 16 -48 16
-27 0 -52 -3 -55 -7z"/>
<path d="M2335 2013 c-3 -27 -8 -58 -11 -71 -4 -20 -1 -23 18 -20 15 2 24 11
26 26 2 14 10 22 23 22 10 0 19 7 19 15 0 8 -9 15 -20 15 -13 0 -18 5 -14 15
3 8 15 13 27 12 13 -1 23 5 25 16 3 14 -4 17 -42 17 l-45 0 -6 -47z"/>
<path d="M2453 2045 c-30 -21 -39 -69 -19 -100 29 -44 116 -24 116 26 0 8 9
-1 20 -18 35 -58 108 -41 125 30 10 38 -17 77 -53 77 -34 0 -72 -25 -72 -48 0
-11 -7 -5 -20 16 -22 36 -60 43 -97 17z m52 -56 c0 -24 -5 -35 -17 -37 -14 -3
-18 4 -18 31 0 18 3 37 7 41 15 14 28 -2 28 -35z m140 0 c0 -24 -5 -35 -17
-37 -14 -3 -18 4 -18 31 0 18 3 37 7 41 15 14 28 -2 28 -35z"/>
<path d="M2720 2028 c0 -18 -3 -50 -6 -70 l-7 -38 45 0 c54 0 88 30 88 77 0
44 -23 63 -76 63 -43 0 -44 -1 -44 -32z m72 -53 c-6 -14 -19 -25 -28 -25 -12
0 -14 6 -9 33 10 46 15 51 33 33 13 -12 13 -20 4 -41z"/>
<path d="M2945 2035 c-50 -49 -23 -119 43 -113 29 2 37 8 43 31 6 22 4 27 -12
27 -10 0 -19 -7 -19 -15 0 -18 -30 -20 -31 -2 -5 49 12 70 48 60 19 -4 23 -1
23 16 0 32 -63 29 -95 -4z"/>
<path d="M3072 2037 c-24 -26 -30 -85 -10 -105 20 -20 75 -14 98 10 24 26 27
80 4 102 -23 23 -67 20 -92 -7z m66 -38 c3 -32 -12 -53 -32 -46 -19 7 -21 48
-4 65 17 17 33 9 36 -19z"/>
<path d="M3212 2037 c-24 -26 -30 -85 -10 -105 20 -20 75 -14 98 10 24 26 27
80 4 102 -23 23 -67 20 -92 -7z m66 -38 c3 -32 -12 -53 -32 -46 -19 7 -21 48
-4 65 17 17 33 9 36 -19z"/>
<path d="M3345 2013 c-3 -27 -8 -58 -11 -70 -4 -21 -1 -23 40 -23 53 0 83 22
92 66 8 44 -22 74 -75 74 l-40 0 -6 -47z m70 -24 c0 -24 -5 -35 -17 -37 -13
-3 -18 3 -18 21 0 14 3 33 6 42 11 27 29 11 29 -26z"/>
<path d="M3516 2038 c-3 -13 -7 -44 -10 -70 -5 -43 -3 -48 13 -48 13 0 21 8
23 23 2 14 11 23 27 25 21 3 23 1 17 -22 -5 -21 -3 -26 13 -26 26 0 27 3 35
78 6 57 6 62 -13 62 -13 0 -21 -8 -23 -22 -2 -15 -11 -24 -26 -26 -20 -3 -22
0 -16 22 5 22 3 26 -15 26 -13 0 -22 -8 -25 -22z"/>
<path d="M3666 2048 c-3 -7 -7 -39 -9 -70 l-6 -58 69 0 c38 0 72 5 75 10 3 6
15 10 26 10 10 0 19 -4 19 -10 0 -5 9 -10 21 -10 19 0 20 4 14 53 -10 78 -14
87 -40 87 -19 0 -28 -12 -51 -66 -15 -37 -30 -62 -32 -55 -2 6 -15 11 -28 11
-13 0 -24 5 -24 10 0 6 9 10 19 10 19 0 35 23 24 34 -4 3 -15 6 -25 6 -11 0
-16 5 -12 11 3 6 17 8 30 5 19 -5 24 -2 24 14 0 17 -7 20 -45 20 -28 0 -47 -5
-49 -12z m167 -53 c4 -8 2 -17 -3 -20 -6 -4 -10 3 -10 14 0 25 6 27 13 6z"/>
<path d="M3916 2048 c-3 -7 -7 -39 -10 -70 l-6 -58 40 0 c43 0 57 23 21 33
-13 3 -18 11 -16 23 15 77 15 84 -6 84 -11 0 -21 -6 -23 -12z"/>
<path d="M4000 2040 c0 -11 7 -20 15 -20 13 0 15 -9 9 -50 -6 -46 -5 -50 15
-50 15 0 21 6 21 24 0 49 12 85 26 79 9 -3 14 2 14 16 0 19 -6 21 -50 21 -43
0 -50 -3 -50 -20z"/>
<path d="M4116 2014 c-10 -79 -8 -94 14 -94 15 0 20 7 20 25 0 18 5 25 20 25
15 0 20 -7 20 -25 0 -18 5 -25 19 -25 14 0 20 10 25 46 10 79 8 94 -14 94 -15
0 -20 -7 -20 -25 0 -18 -5 -25 -20 -25 -15 0 -20 7 -20 25 0 18 -5 25 -19 25
-14 0 -20 -10 -25 -46z"/>
<path d="M2855 1952 c-9 -6 -10 -21 -6 -56 2 -19 31 18 31 40 0 25 -7 29 -25
16z"/>
</g>
</svg>
